<?xml version="1.0" standalone="no"?><!DOCTYPE svg PUBLIC "-//W3C//DTD SVG 1.1//EN" "http://www.w3.org/Graphics/SVG/1.1/DTD/svg11.dtd"><svg t="1692431455963" class="icon" viewBox="0 0 1024 1024" version="1.1" xmlns="http://www.w3.org/2000/svg" p-id="1504" xmlns:xlink="http://www.w3.org/1999/xlink" width="200" height="200"><path d="M117.418667 768h789.333333a32 32 0 0 1 4.352 63.701333l-4.352 0.298667h-789.333333a32 32 0 0 1-4.309334-63.701333L117.418667 768h789.333333-789.333333z m0-277.205333h789.333333a32 32 0 0 1 4.352 63.701333l-4.352 0.298667h-789.333333a32 32 0 0 1-4.309334-63.701334l4.309334-0.298666h789.333333-789.333333z m0-277.333334h789.333333a32 32 0 0 1 4.309333 63.701334l-4.352 0.298666h-789.333333A32 32 0 0 1 113.066667 213.76l4.309333-0.298667h789.333333-789.333333z" fill="#ffffff" p-id="1505"></path></svg>